# xmcd CD database file
#
# Track frame offsets:
#	150
#	20904
#	41639
#	63758
#	86490
#	98685
#	117917
#	128475
#	146962
#	164869
#	182224
#
# Disc length: 2684 seconds
#
# Revision: 0
# Processed by: cddbd v1.5.2PL0 Copyright (c) Steve Scherf et al.
# Submitted via: CDex 1.70beta2
#
DISCID=9b0a7a0b
DTITLE=sade - Lovers Rock
DYEAR=2000
DGENRE=Blues
TTITLE0=By Your Side
TTITLE1=Flow
TTITLE2=King Of Sorrow
TTITLE3=Somebody Already Broke My Heart
TTITLE4=All About Our Love
TTITLE5=Slave Song
TTITLE6=The Sweetest Gift
TTITLE7=Every Word
TTITLE8=Immigrant
TTITLE9=Lovers Rock
TTITLE10=It's Only Love That Gets You Through
EXTD=YEAR: 2000
EXTT0=
EXTT1=
EXTT2=
EXTT3=
EXTT4=
EXTT5=
EXTT6=
EXTT7=
EXTT8=
EXTT9=
EXTT10=
PLAYORDER=
